<?xml version="1.0" encoding="UTF-8"?>
<!DOCTYPE svg PUBLIC "-//W3C//DTD SVG 1.1//EN" "http://www.w3.org/Graphics/SVG/1.1/DTD/svg11.dtd">
<!-- Creator: CorelDRAW -->
<svg xmlns="http://www.w3.org/2000/svg" xml:space="preserve" width="2048px" height="2048px" style="shape-rendering:geometricPrecision; text-rendering:geometricPrecision; image-rendering:optimizeQuality; fill-rule:evenodd; clip-rule:evenodd"
viewBox="0 0 2048 2048"
 xmlns:xlink="http://www.w3.org/1999/xlink">
 <defs>
  <style type="text/css">
   <![CDATA[
    .fil2 {fill:none}
    .fil1 {fill:#AD1457}
    .fil0 {fill:#D81B60}
    .fil4 {fill:#F57F17}
    .fil3 {fill:#FBC02D}
   ]]>
  </style>
   <clipPath id="id0">
    <path d="M1024 0c565.539,0 1024,458.461 1024,1024 0,565.539 -458.461,1024 -1024,1024 -565.539,0 -1024,-458.461 -1024,-1024 0,-565.539 458.461,-1024 1024,-1024z"/>
   </clipPath>
 </defs>
 <g id="Layer_x0020_1">
  <metadata id="CorelCorpID_0Corel-Layer"/>
  <path class="fil0" d="M1024 0c565.539,0 1024,458.461 1024,1024 0,565.539 -458.461,1024 -1024,1024 -565.539,0 -1024,-458.461 -1024,-1024 0,-565.539 458.461,-1024 1024,-1024z"/>
  <g style="clip-path:url(#id0)">
   <g id="_341219056">
    <g>
     <polygon id="_3332888161" class="fil1" points="1559.96,502.285 2695.84,1638.17 2697.43,1640.13 2698.97,1642.14 2700.46,1644.18 2701.9,1646.25 2703.29,1648.37 2704.63,1650.52 2705.93,1652.7 2707.17,1654.91 2708.36,1657.16 2709.49,1659.44 2710.58,1661.75 2711.6,1664.09 2712.57,1666.46 2713.49,1668.85 2714.35,1671.28 2715.14,1673.73 2715.88,1676.2 2716.56,1678.7 2717.18,1681.23 2717.74,1683.77 2718.24,1686.34 2718.67,1688.93 2719.04,1691.55 2719.34,1694.18 2719.58,1696.83 2719.75,1699.5 2719.85,1702.18 2719.88,1704.88 1584,569 1583.97,566.299 1583.86,563.613 1583.69,560.945 1583.46,558.295 1583.15,555.663 1582.79,553.052 1582.35,550.46 1581.86,547.891 1581.3,545.344 1580.68,542.82 1580,540.319 1579.26,537.844 1578.46,535.393 1577.61,532.969 1576.69,530.573 1575.72,528.205 1574.69,525.866 1573.61,523.556 1572.48,521.278 1571.29,519.03 1570.05,516.815 1568.75,514.633 1567.41,512.485 1566.02,510.372 1564.57,508.295 1563.08,506.254 1561.55,504.251 "/>
     <polygon id="_333288408" class="fil1" points="1584,569 2719.88,1704.88 2719.88,2614.88 1584,1479 "/>
     <polygon id="_333288456" class="fil1" points="1584,1479 2719.88,2614.88 2719.85,2617.58 2719.75,2620.27 2719.58,2622.94 2719.34,2625.59 2719.04,2628.22 2718.67,2630.83 2718.24,2633.42 2717.74,2635.99 2717.18,2638.54 2716.56,2641.06 2715.88,2643.56 2715.14,2646.04 2714.35,2648.49 2713.49,2650.91 2712.57,2653.31 2711.6,2655.68 2710.58,2658.02 2709.49,2660.33 2708.36,2662.6 2707.17,2664.85 2705.93,2667.07 2704.63,2669.25 2703.29,2671.4 2701.9,2673.51 2700.46,2675.59 2698.97,2677.63 2697.43,2679.63 2695.84,2681.6 2694.21,2683.52 2692.54,2685.41 2690.82,2687.26 2689.06,2689.06 1553.18,1553.18 1554.94,1551.37 1556.66,1549.53 1558.33,1547.64 1559.96,1545.71 1561.55,1543.75 1563.08,1541.75 1564.57,1539.71 1566.02,1537.63 1567.41,1535.51 1568.75,1533.37 1570.05,1531.18 1571.29,1528.97 1572.48,1526.72 1573.61,1524.44 1574.69,1522.13 1575.72,1519.8 1576.69,1517.43 1577.61,1515.03 1578.46,1512.61 1579.26,1510.16 1580,1507.68 1580.68,1505.18 1581.3,1502.66 1581.86,1500.11 1582.35,1497.54 1582.79,1494.95 1583.15,1492.34 1583.46,1489.71 1583.69,1487.06 1583.86,1484.39 1583.97,1481.7 "/>
     <polygon id="_333289800" class="fil1" points="1553.18,1553.18 2689.06,2689.06 2687.25,2690.82 2685.41,2692.54 2683.52,2694.21 2681.6,2695.84 2679.63,2697.43 2677.63,2698.97 2675.59,2700.46 2673.51,2701.9 2671.4,2703.29 2669.25,2704.64 2667.07,2705.93 2664.85,2707.17 2662.6,2708.36 2660.33,2709.49 2658.02,2710.58 2655.68,2711.6 2653.31,2712.57 2650.91,2713.49 2648.49,2714.35 2646.04,2715.15 2643.56,2715.89 2641.06,2716.56 2638.54,2717.18 2635.99,2717.74 2633.42,2718.24 2630.83,2718.67 2628.22,2719.04 2625.59,2719.34 2622.94,2719.58 2620.27,2719.75 2617.58,2719.85 2614.88,2719.88 1479,1584 1481.7,1583.97 1484.39,1583.86 1487.06,1583.69 1489.71,1583.46 1492.34,1583.15 1494.95,1582.79 1497.54,1582.35 1500.11,1581.86 1502.66,1581.3 1505.18,1580.68 1507.68,1580 1510.16,1579.26 1512.61,1578.46 1515.03,1577.61 1517.43,1576.69 1519.8,1575.72 1522.13,1574.69 1524.44,1573.61 1526.72,1572.48 1528.97,1571.29 1531.18,1570.05 1533.37,1568.75 1535.51,1567.41 1537.63,1566.02 1539.71,1564.57 1541.75,1563.08 1543.75,1561.55 1545.71,1559.96 1547.64,1558.33 1549.53,1556.66 1551.37,1554.94 "/>
     <polygon id="_333289296" class="fil1" points="1479,1584 2614.88,2719.88 1704.88,2719.88 569,1584 "/>
     <polygon id="_333289320" class="fil1" points="569,1584 1704.88,2719.88 1702.18,2719.85 1699.49,2719.75 1696.83,2719.58 1694.18,2719.34 1691.54,2719.04 1688.93,2718.67 1686.34,2718.24 1683.77,2717.74 1681.22,2717.18 1678.7,2716.56 1676.2,2715.89 1673.72,2715.15 1671.27,2714.35 1668.85,2713.49 1666.45,2712.57 1664.09,2711.6 1661.75,2710.58 1659.44,2709.49 1657.16,2708.36 1654.91,2707.17 1652.7,2705.93 1650.51,2704.64 1648.37,2703.29 1646.25,2701.9 1644.18,2700.46 1642.14,2698.97 1640.13,2697.43 1638.17,2695.84 502.285,1559.96 504.251,1561.55 506.254,1563.08 508.295,1564.57 510.372,1566.02 512.485,1567.41 514.633,1568.75 516.815,1570.05 519.03,1571.29 521.278,1572.48 523.556,1573.61 525.866,1574.69 528.205,1575.72 530.573,1576.69 532.969,1577.61 535.393,1578.46 537.844,1579.26 540.319,1580 542.82,1580.68 545.344,1581.3 547.891,1581.86 550.46,1582.35 553.052,1582.79 555.663,1583.15 558.295,1583.46 560.945,1583.69 563.613,1583.86 566.299,1583.97 "/>
    </g>
    <path id="_341219080" class="fil1" d="M569 463.999l910 0c28.9028,0 55.1587,11.8063 74.1768,30.8244 19.0181,19.0181 30.8244,45.2741 30.8244,74.1768l0 910c0,28.9028 -11.8063,55.1587 -30.8244,74.1768 -19.0181,19.0181 -45.2741,30.8244 -74.1768,30.8244l-910 0c-28.9028,0 -55.1587,-11.8063 -74.1768,-30.8244 -19.0181,-19.0181 -30.8244,-45.2741 -30.8244,-74.1768l0 -910c0,-28.9028 11.8063,-55.1587 30.8244,-74.1768 19.0181,-19.0181 45.2741,-30.8244 74.1768,-30.8244z"/>
   </g>
  </g>
  <path class="fil2" d="M1024 0c565.539,0 1024,458.461 1024,1024 0,565.539 -458.461,1024 -1024,1024 -565.539,0 -1024,-458.461 -1024,-1024 0,-565.539 458.461,-1024 1024,-1024z"/>
  <path class="fil3" d="M569 463.999l910 0c28.9028,0 55.1587,11.8063 74.1768,30.8244 19.0181,19.0181 30.8244,45.2741 30.8244,74.1768l0 910c0,28.9028 -11.8063,55.1587 -30.8244,74.1768 -19.0181,19.0181 -45.2741,30.8244 -74.1768,30.8244l-910 0c-28.9028,0 -55.1587,-11.8063 -74.1768,-30.8244 -19.0181,-19.0181 -30.8244,-45.2741 -30.8244,-74.1768l0 -910c0,-28.9028 11.8063,-55.1587 30.8244,-74.1768 19.0181,-19.0181 45.2741,-30.8244 74.1768,-30.8244z"/>
  <path class="fil4" d="M594.455 1152.12c-0.10748,-18.6862 -19.3854,-30.9827 -36.352,-23.0114 -8.95867,4.29803 -14.5028,13.0772 -14.5583,23.0114l0 101.818c0.106299,18.6862 19.3843,30.9827 36.3508,23.0126 8.95867,-4.29922 14.5016,-13.0784 14.5595,-23.0126l0 -101.818zm0 -509.094c-0.10748,-18.6851 -19.3854,-30.9827 -36.352,-23.0114 -8.95867,4.29803 -14.5028,13.0772 -14.5583,23.0114l0 101.819c0.106299,18.6851 19.3843,30.9827 36.3508,23.0114 8.95867,-4.29803 14.5016,-13.0772 14.5595,-23.0114l0 -101.819zm0 254.547c-0.10748,-18.6851 -19.3854,-30.9815 -36.352,-23.0114 -8.95867,4.29803 -14.5028,13.0784 -14.5583,23.0114l0 101.819c0.106299,18.6862 19.3843,30.9827 36.3508,23.0114 8.95867,-4.29803 14.5016,-13.0772 14.5595,-23.0114l0 -101.819z"/>
  <path class="fil4" d="M1289.42 1453.54c-18.6851,0.10748 -30.9815,19.3854 -23.0103,36.352 4.29803,8.95867 13.076,14.5028 23.0103,14.5583l101.819 0c18.6862,-0.106299 30.9827,-19.3843 23.0114,-36.3508 -4.29803,-8.95867 -13.076,-14.5016 -23.0114,-14.5595l-101.819 0zm-652.714 -910c-18.6862,0.106299 -30.9827,19.3843 -23.0103,36.3508 4.29803,8.95867 13.076,14.5016 23.0103,14.5595l101.818 0c18.6862,-0.10748 30.9827,-19.3854 23.0114,-36.352 -4.29803,-8.95867 -13.076,-14.5028 -23.0114,-14.5583l-101.818 0zm356.365 50.9103c18.6862,-0.10748 30.9827,-19.3854 23.0114,-36.352 -4.29803,-8.95867 -13.076,-14.5028 -23.0114,-14.5583l-101.818 0c-18.6862,0.106299 -30.9827,19.3843 -23.0114,36.3508 4.29803,8.95867 13.0772,14.5016 23.0114,14.5595l101.818 0zm254.548 0c18.6862,-0.10748 30.9815,-19.3854 23.0114,-36.352 -4.29922,-8.95867 -13.0772,-14.5028 -23.0114,-14.5583l-101.819 0c-18.6862,0.106299 -30.9815,19.3843 -23.0114,36.3508 4.29922,8.95867 13.0772,14.5016 23.0114,14.5595l101.819 0zm204.867 32.8618c4.26615,17.6917 24.9331,25.291 39.7134,14.7024 8.35749,-6.15945 12.1736,-16.389 9.8067,-26.5122 -7.78111,-33.1347 -33.0733,-59.3292 -65.7886,-68.5583 -8.22638,-2.27362 -16.3925,-3.37914 -24.9248,-3.40394l-10.9453 0c-18.6862,0.106299 -30.9827,19.3843 -23.0114,36.3508 4.29803,8.95867 13.076,14.5016 23.0114,14.5595l10.9453 0c19.6819,0 36.7087,13.7634 41.1933,32.8618zm1.05827 248.509c0.10748,18.6862 19.3854,30.9815 36.352,23.0114 8.95867,-4.29922 14.5028,-13.0772 14.5583,-23.0114l0 -101.818c-0.106299,-18.6874 -19.3843,-30.9827 -36.3508,-23.0126 -8.95867,4.29922 -14.5016,13.0772 -14.5595,23.0126l0 101.818zm0 254.547c0.10748,18.6862 19.3854,30.9827 36.352,23.0114 8.95867,-4.29803 14.5028,-13.0772 14.5583,-23.0114l0 -101.818c-0.106299,-18.6862 -19.3843,-30.9827 -36.3508,-23.0126 -8.95867,4.29922 -14.5016,13.0772 -14.5595,23.0126l0 101.818zm0 254.548c0.10748,18.6851 19.3854,30.9815 36.352,23.0103 8.95867,-4.29803 14.5028,-13.0772 14.5583,-23.0103l0 -101.819c-0.106299,-18.6862 -19.3843,-30.9827 -36.3508,-23.0114 -8.95867,4.29803 -14.5016,13.076 -14.5595,23.0114l0 101.819zm-859.09 21.7488c-0.10748,-18.6862 -19.3854,-30.9827 -36.352,-23.0114 -8.95867,4.29922 -14.5028,13.0772 -14.5583,23.0114l0 4.62402c0.122835,39.3024 24.4051,73.7599 61.1623,87.4737 6.43229,2.32559 12.7382,3.91536 19.5177,4.84961 18.4429,2.4378 33.052,-14.8512 27.7559,-32.654 -2.98819,-9.57166 -11.0008,-16.4256 -20.9504,-17.7992 -15.0036,-2.17087 -27.4689,-11.8228 -33.3673,-25.7882 -2.13071,-5.1437 -3.20788,-10.513 -3.20788,-16.0819l0 -4.62402zm185.873 46.8756c-18.6862,0.10748 -30.9827,19.3854 -23.0114,36.352 4.29803,8.95867 13.0772,14.5028 23.0114,14.5583l101.818 0c18.6862,-0.106299 30.9827,-19.3843 23.0126,-36.3508 -4.29803,-8.95867 -13.0784,-14.5016 -23.0126,-14.5595l-101.818 0zm254.547 0c-18.6862,0.10748 -30.9827,19.3854 -23.0103,36.352 4.29803,8.95867 13.076,14.5028 23.0103,14.5583l101.819 0c18.6851,-0.106299 30.9815,-19.3843 23.0114,-36.3508 -4.29803,-8.95867 -13.0772,-14.5016 -23.0114,-14.5595l-101.819 0z"/>
  <path class="fil4" d="M886.744 770.122c26.9055,0 51.2693,10.9087 68.9032,28.5425 17.6351,17.6351 28.5449,41.9965 28.5449,68.9056 0,26.9044 -10.9099,51.2693 -28.5449,68.9032 -17.6339,17.6339 -41.9977,28.5449 -68.9032,28.5449 -26.9079,0 -51.2705,-10.911 -68.9044,-28.5449 -17.6351,-17.6339 -28.5437,-41.9989 -28.5437,-68.9032 0,-26.9091 10.9087,-51.2705 28.5437,-68.9056 17.6339,-17.6339 41.9965,-28.5425 68.9044,-28.5425zm274.512 293.686c26.9079,0 51.2705,10.9087 68.9044,28.5437 17.6351,17.6339 28.5437,41.9977 28.5437,68.9044 0,26.9079 -10.9087,51.2693 -28.5437,68.9032 -17.6339,17.6339 -41.9965,28.5437 -68.9044,28.5437 -26.9055,0 -51.2693,-10.9099 -68.9032,-28.5437 -17.6351,-17.6339 -28.5449,-41.9953 -28.5449,-68.9032 0,-26.9067 10.9099,-51.2705 28.5449,-68.9044 17.6339,-17.6351 41.9977,-28.5437 68.9032,-28.5437zm135.287 -276.357c9.93898,-9.93898 9.93898,-26.0551 0,-35.9941 -9.93898,-9.93898 -26.0551,-9.93898 -35.9941,0l-509.092 509.092c-9.93898,9.93898 -9.93898,26.0551 0,35.9941 9.93898,9.93898 26.0551,9.93898 35.9941,0l509.092 -509.092z"/>
 </g>
</svg>
