<?xml version="1.0" encoding="utf-8"?>
<!-- Generator: Adobe Illustrator 18.0.0, SVG Export Plug-In . SVG Version: 6.00 Build 0)  -->
<!DOCTYPE svg PUBLIC "-//W3C//DTD SVG 1.1//EN" "http://www.w3.org/Graphics/SVG/1.1/DTD/svg11.dtd">
<svg version="1.1" id="Icon_Set" xmlns="http://www.w3.org/2000/svg" xmlns:xlink="http://www.w3.org/1999/xlink" x="0px" y="0px"
	 viewBox="0 0 256 256" style="enable-background:new 0 0 256 256;" xml:space="preserve">
<style type="text/css">
	.st0{fill:#4C4372;}
	.st1{fill:#F1C48B;}
	.st2{fill:#FFFFFF;}
	.st3{fill:#A3D0F1;}
	.st4{fill:#7BACF1;}
	.st5{fill:#D4E7F8;}
	.st6{fill:#FD919E;}
	.st7{fill:#D3E6F7;}
	.st8{fill:#E8677D;}
	.st9{fill:#D3E6F8;}
</style>
<g>
	<g>
		<circle class="st1" cx="128" cy="128" r="104.245"/>
	</g>
	<g>
		<path class="st5" d="M119.41,168.537c-1.332-5.563-6.008-9.284-11.143-8.869l-11.26,0.911c-7.278,0.589-13.826-4.928-15.33-12.915
			v0c-2.441-12.967-2.441-26.36,0-39.327v0c1.503-7.987,8.051-13.504,15.33-12.915l11.26,0.91c5.135,0.415,9.811-3.306,11.143-8.869
			l6.132-25.608c1.767-7.379-2.995-14.704-9.816-15.097l-9.388-0.541c-14.1-0.813-27.714,6.192-36.138,18.865
			c-7.292,10.97-14.365,27.431-17.033,51.559c-0.833,7.54-0.833,15.18,0,22.719c2.667,24.128,9.741,40.588,17.033,51.559
			c8.424,12.673,22.037,19.678,36.137,18.865c3.12-0.18,6.367-0.367,9.394-0.542c6.821-0.393,11.578-7.717,9.811-15.097
			L119.41,168.537z"/>
	</g>
	<g>
		<path class="st3" d="M101.937,46.758c6.821,0.393,11.583,7.718,9.816,15.097l-6.132,25.608c-0.918,3.832-3.422,6.789-6.571,8.123
			l9.218,0.745c5.135,0.415,9.811-3.306,11.143-8.869l6.132-25.608c1.767-7.38-2.995-14.704-9.816-15.097l-9.388-0.541
			c-2.623-0.151-5.228-0.03-7.787,0.346L101.937,46.758z"/>
	</g>
	<g>
		<path class="st3" d="M125.543,194.145l-6.132-25.608c-1.332-5.563-6.008-9.284-11.143-8.869l-9.218,0.745
			c3.148,1.334,5.653,4.291,6.571,8.123l6.132,25.608c1.767,7.38-2.99,14.704-9.811,15.097c-1.106,0.064-2.245,0.129-3.392,0.196
			c2.559,0.376,5.165,0.497,7.788,0.346c3.12-0.18,6.367-0.367,9.394-0.542C122.553,208.849,127.31,201.525,125.543,194.145z"/>
	</g>
	<g>
		<path class="st0" d="M104.13,212.847c-0.001,0-0.002,0-0.003,0c-14.373,0-27.99-7.578-36.425-20.269
			c-9.288-13.972-15.182-31.767-17.516-52.889c-0.858-7.756-0.858-15.623,0-23.379c2.334-21.123,8.228-38.917,17.516-52.89
			c8.436-12.691,22.053-20.268,36.425-20.268c0.791,0,1.593,0.023,2.384,0.068l9.389,0.542c3.874,0.223,7.494,2.233,9.933,5.515
			c2.791,3.755,3.749,8.595,2.629,13.276l-6.133,25.608c-1.666,6.954-7.649,11.705-14.303,11.161l-11.26-0.911
			c-5.75-0.468-10.935,4.083-12.14,10.48c-2.387,12.679-2.387,25.538,0,38.217c1.205,6.397,6.391,10.942,12.14,10.48l11.26-0.911
			c6.655-0.536,12.638,4.207,14.303,11.161l6.133,25.607c1.121,4.683,0.163,9.523-2.628,13.279c-2.438,3.28-6.057,5.289-9.929,5.512
			l-9.394,0.542C105.72,212.824,104.919,212.847,104.13,212.847z M104.127,49.153c-12.358,0-24.107,6.575-31.429,17.589
			c-8.752,13.167-14.32,30.066-16.549,50.228c-0.81,7.319-0.81,14.741,0,22.061c2.229,20.162,7.797,37.061,16.549,50.227
			c7.321,11.014,19.07,17.589,31.43,17.59c0.001,0,0.002,0,0.003,0c0.677,0,1.354-0.019,2.034-0.059l9.394-0.542
			c2.125-0.123,4.063-1.224,5.459-3.101c1.702-2.292,2.304-5.396,1.607-8.303l-6.133-25.607c-0.978-4.087-4.307-6.874-7.983-6.578
			l-11.259,0.911c-8.843,0.707-16.753-5.961-18.521-15.351c-2.525-13.417-2.525-27.021,0-40.437
			c1.768-9.39,9.675-16.063,18.521-15.351l11.26,0.911c3.657,0.295,7.005-2.49,7.982-6.578l6.133-25.607
			c0.696-2.905,0.095-6.008-1.608-8.3c-1.396-1.878-3.337-2.98-5.463-3.103l-9.389-0.542
			C105.484,49.172,104.805,49.153,104.127,49.153z"/>
	</g>
	<g>
		<rect x="124.995" y="101.296" class="st3" width="78.463" height="53.409"/>
	</g>
	<g>
		<rect x="195.24" y="101.296" class="st4" width="8.217" height="53.409"/>
	</g>
	<g>
		<polygon class="st4" points="164.226,141.352 151.149,128 124.995,154.704 203.457,154.704 177.303,128 		"/>
	</g>
	<g>
		<polygon class="st7" points="124.995,101.296 164.226,141.352 203.457,101.296 		"/>
	</g>
	<g>
		<path class="st0" d="M203.457,157.704h-78.462c-1.657,0-3-1.343-3-3v-53.408c0-1.657,1.343-3,3-3h78.462c1.657,0,3,1.343,3,3
			v53.408C206.457,156.361,205.114,157.704,203.457,157.704z M127.995,151.704h72.462v-47.408h-72.462V151.704z"/>
	</g>
	<g>
		<path class="st0" d="M203.477,157.704c-0.006,0-0.014,0-0.02,0h-78.462c-1.208,0-2.298-0.724-2.766-1.837
			s-0.223-2.399,0.622-3.262l26.154-26.704c1.129-1.152,3.158-1.152,4.287,0l10.934,11.164l10.933-11.164
			c1.129-1.152,3.158-1.152,4.287,0l25.959,26.505c0.655,0.55,1.071,1.375,1.071,2.298
			C206.477,156.361,205.134,157.704,203.477,157.704z M132.133,151.704h64.187l-19.017-19.417l-10.933,11.164
			c-1.129,1.152-3.158,1.152-4.287,0l-10.934-11.164L132.133,151.704z"/>
	</g>
	<g>
		<path class="st0" d="M164.227,144.352c-0.807,0-1.579-0.325-2.144-0.901l-39.231-40.056c-0.845-0.863-1.09-2.148-0.622-3.262
			s1.558-1.837,2.766-1.837h78.462c1.208,0,2.298,0.724,2.766,1.837s0.223,2.399-0.622,3.262l-39.23,40.056
			C165.806,144.027,165.033,144.352,164.227,144.352z M132.133,104.296l32.094,32.769l32.093-32.769H132.133z"/>
	</g>
</g>
</svg>
